<svg width="25" height="20" viewBox="0 0 25 20" fill="none" xmlns="http://www.w3.org/2000/svg">
<path d="M6.70306 4V4.75C6.93671 4.75 7.15701 4.64111 7.2989 4.45549L6.70306 4ZM8.31558 1.8906L7.71974 1.43511V1.43511L8.31558 1.8906ZM16.5572 1.8906L17.1531 1.43511L16.5572 1.8906ZM18.1697 4L17.5739 4.45549C17.7158 4.64111 17.9361 4.75 18.1697 4.75V4ZM15.1264 11.5C15.1264 12.6495 14.0217 13.75 12.4364 13.75V15.25C14.6508 15.25 16.6264 13.6642 16.6264 11.5H15.1264ZM12.4364 13.75C10.8511 13.75 9.74639 12.6495 9.74639 11.5H8.24639C8.24639 13.6642 10.222 15.25 12.4364 15.25V13.75ZM9.74639 11.5C9.74639 10.3505 10.8511 9.25 12.4364 9.25V7.75C10.222 7.75 8.24639 9.33582 8.24639 11.5H9.74639ZM12.4364 9.25C14.0217 9.25 15.1264 10.3505 15.1264 11.5H16.6264C16.6264 9.33582 14.6508 7.75 12.4364 7.75V9.25ZM7.2989 4.45549L8.91142 2.34609L7.71974 1.43511L6.10722 3.54451L7.2989 4.45549ZM10.2237 1.75H14.649V0.25H10.2237V1.75ZM15.9614 2.34609L17.5739 4.45549L18.7656 3.54451L17.1531 1.43511L15.9614 2.34609ZM14.649 1.75C15.2077 1.75 15.6927 1.99469 15.9614 2.34609L17.1531 1.43511C16.571 0.67371 15.6239 0.25 14.649 0.25V1.75ZM8.91142 2.34609C9.18005 1.99469 9.66509 1.75 10.2237 1.75V0.25C9.24885 0.25 8.30179 0.673709 7.71974 1.43511L8.91142 2.34609ZM23.1531 8V15H24.6531V8H23.1531ZM19.3164 18.25H5.55639V19.75H19.3164V18.25ZM1.71973 15V8H0.219727V15H1.71973ZM5.55639 18.25C3.33777 18.25 1.71973 16.7018 1.71973 15H0.219727C0.219727 17.7165 2.70872 19.75 5.55639 19.75V18.25ZM23.1531 15C23.1531 16.7018 21.535 18.25 19.3164 18.25V19.75C22.1641 19.75 24.6531 17.7165 24.6531 15H23.1531ZM19.3164 4.75C21.535 4.75 23.1531 6.29818 23.1531 8H24.6531C24.6531 5.28354 22.1641 3.25 19.3164 3.25V4.75ZM5.55639 3.25C2.70872 3.25 0.219727 5.28354 0.219727 8H1.71973C1.71973 6.29818 3.33777 4.75 5.55639 4.75V3.25ZM5.55639 4.75H6.70306V3.25H5.55639V4.75ZM19.3164 3.25H18.1697V4.75H19.3164V3.25Z" fill="#000E08"/>
</svg>
